PathFileType  4	(X/Y/Z) C:\Users\antoi\Documents\MyRepositories\mobilecap\ResultsAnalysis
DataRate	CameraRate	NumFrames	NumMarkers	Units	OrigDataRate	OrigDataStartFrame	OrigNumFrames
100.0	100.0	5	51	mm	100.0	72	142
Frame#	Time	r_knee			r_shank_antsup			r_ankle			r_calc			r_5meta			r_toe			L_knee			L_shank_antsup			L_ankle			L_calc			L_5meta			L_toe			r_sh2			r_sh3			r_sh4			L_sh2			L_sh3			r_thigh1			r_thigh2			r_thigh3			r_thigh4			r_thigh5			L_thigh1			L_thigh2			L_thigh3			L_thigh4			r.ASIS			r.PSIS			L.ASIS			L.PSIS			C7			R_Shoulder			L_Shoulder			R_Sternum			L_Sternum			R_humerus			R_elbow_med			R_elbow_lat			R_forearm			R_wrist_radius			R_wrist_ulna			L_humerus			L_elbow_med			L_elbow_lat			L_forearm			L_wrist_radius			L_wrist_ulna			R_HJC			L_HJC			R_HJC_reg			L_HJC_reg			
		X1	Y1	Z1	X2	Y2	Z2	X3	Y3	Z3	X4	Y4	Z4	X5	Y5	Z5	X6	Y6	Z6	X7	Y7	Z7	X8	Y8	Z8	X9	Y9	Z9	X10	Y10	Z10	X11	Y11	Z11	X12	Y12	Z12	X13	Y13	Z13	X14	Y14	Z14	X15	Y15	Z15	X16	Y16	Z16	X17	Y17	Z17	X18	Y18	Z18	X19	Y19	Z19	X20	Y20	Z20	X21	Y21	Z21	X22	Y22	Z22	X23	Y23	Z23	X24	Y24	Z24	X25	Y25	Z25	X26	Y26	Z26	X27	Y27	Z27	X28	Y28	Z28	X29	Y29	Z29	X30	Y30	Z30	X31	Y31	Z31	X32	Y32	Z32	X33	Y33	Z33	X34	Y34	Z34	X35	Y35	Z35	X36	Y36	Z36	X37	Y37	Z37	X38	Y38	Z38	X39	Y39	Z39	X40	Y40	Z40	X41	Y41	Z41	X42	Y42	Z42	X43	Y43	Z43	X44	Y44	Z44	X45	Y45	Z45	X46	Y46	Z46	X47	Y47	Z47	X48	Y48	Z48	X49	Y49	Z49	X50	Y50	Z50	X51	Y51	Z51	

72	0.71000000	649.78828	431.36458	-84.52016	604.39903	376.44875	-59.36603	344.04558	221.52170	-111.82487	290.86707	262.22694	-162.92463	336.76195	103.75736	-85.18440	386.12855	75.53878	-130.18235	825.31283	459.70286	-417.55366	864.44917	399.54114	-420.34033	866.68797	88.05531	-409.15252	797.98793	56.27207	-364.43284	963.07382	42.12669	-427.47326	1008.86490	74.24943	-373.27024	511.13018	311.92352	-62.33189	563.25362	433.86914	-84.39616	464.72868	373.92712	-91.84774	775.16832	395.61562	-439.61306	795.08644	274.84269	-444.72345	753.10092	736.26784	-112.91413	755.72973	623.87258	-90.74421	697.39031	607.25465	-59.78712	646.91604	741.14196	-71.18721	642.70337	625.26136	-70.65247	798.78120	746.55438	-438.47832	840.42831	614.45033	-433.75875	689.77769	713.88052	-447.72150	741.08330	578.64245	-438.19266	754.63203	886.23825	-129.40820	580.47682	902.42122	-218.15173	782.61580	893.75404	-388.38112	585.57904	898.58256	-325.20759	674.99423	1361.16838	-359.14916	742.50261	1342.36192	-200.41742	720.55695	1249.55005	-502.26408	782.20978	1270.19602	-326.45136	777.81282	1258.04372	-367.73220	757.41014	1128.39113	-71.17522	693.37438	1020.79831	-78.02534	736.57682	1052.37721	-27.23256	802.53345	946.28910	-23.62023	838.87551	833.19537	-16.62445	808.52274	826.03044	14.90256	747.75608	1112.23734	-522.93168	683.25030	908.53824	-459.03884	695.59102	910.39371	-520.90994	744.70125	813.59479	-534.08580	763.42718	690.32676	-516.84996	728.01779	679.61834	-521.26616	696.00409	810.20946	-165.36386	716.92018	817.83089	-364.40106	700.33542	810.60548	-165.84435	708.51769	804.47075	-337.54075	
73	0.72000000	674.19233	431.45932	-85.48094	628.84544	376.97666	-60.42311	364.26758	229.94653	-113.32234	312.08621	271.82576	-165.02289	354.38703	113.29500	-85.06762	402.96624	82.99454	-129.68769	831.22274	460.76354	-420.08643	869.48364	399.82994	-423.02924	866.81529	88.00337	-409.85681	798.03461	56.41764	-364.61851	963.06590	41.73117	-427.79673	1009.21489	73.62575	-373.63572	533.91791	314.81064	-63.66079	589.10123	435.59653	-84.76496	488.94439	378.30475	-92.24523	779.84137	397.47740	-441.82267	797.72006	276.29861	-446.55734	766.26970	738.72264	-115.32418	772.72255	626.55518	-92.39067	714.79886	608.26533	-61.52196	659.85419	740.49472	-74.23144	659.77221	624.81022	-72.99443	808.50980	748.21241	-441.71284	848.68762	615.60271	-436.76766	699.21585	716.93022	-450.18875	749.05687	580.85307	-440.73967	765.26393	887.98921	-131.94540	591.20785	904.11715	-220.06016	793.25683	897.43120	-390.92461	596.28048	901.21086	-326.86831	688.17718	1362.74169	-362.61181	754.86158	1344.83858	-203.80839	734.51185	1250.25180	-504.31487	794.72787	1271.52422	-328.62427	790.67316	1259.03602	-369.73756	767.29077	1131.42725	-73.48849	701.92866	1024.66641	-80.55445	745.32775	1055.77420	-29.52043	809.75787	948.68226	-26.34489	844.68101	835.02424	-19.68495	814.41723	828.30113	12.11129	762.89894	1113.28899	-524.23306	699.31062	909.10823	-461.41863	712.58363	911.20504	-523.19405	761.77777	814.56758	-536.06347	779.79953	691.11446	-519.08116	744.60048	680.58103	-524.22256	707.13685	811.97333	-168.18378	727.70373	821.13966	-367.20783	711.40233	812.20646	-169.00230	719.56073	807.54361	-340.79341	
74	0.73000000	698.45051	432.48808	-86.67340	653.23257	378.36917	-61.71952	385.45127	237.75010	-114.94445	333.43937	279.95988	-167.04262	374.59563	122.26925	-84.97283	422.42784	90.60142	-129.47280	836.22123	461.49168	-422.15965	873.74244	399.96592	-425.15413	866.95549	87.93065	-410.43022	798.06247	56.58856	-364.78121	963.07378	41.41253	-428.04307	1009.55419	73.06562	-373.90580	556.96492	318.24413	-65.13113	614.71765	437.94831	-85.62988	513.25644	382.91852	-93.04117	783.83733	398.91293	-443.65742	800.00002	277.44138	-448.03981	779.28347	741.62173	-117.70787	789.38291	629.81089	-94.09531	731.94609	609.89308	-63.31051	672.77627	740.41399	-77.16701	676.65332	624.96081	-75.40139	818.20936	749.60096	-444.35614	856.46795	616.31080	-439.04711	708.55111	719.87491	-452.56974	756.47775	582.97254	-442.98263	775.77636	890.04268	-134.35776	601.83882	906.12747	-222.23991	803.70196	900.70000	-393.17460	606.92794	903.81364	-328.81678	701.01491	1364.49552	-365.76599	766.65186	1347.47508	-206.75624	748.15204	1251.35418	-506.13497	807.01890	1273.17740	-330.40386	803.30120	1260.37680	-371.38614	776.86837	1134.58528	-75.43479	710.25520	1028.58752	-82.79062	753.81565	1059.22833	-31.54278	816.84881	951.25780	-28.87102	850.50324	837.08858	-22.65951	820.44637	830.79280	9.49261	777.69334	1114.78860	-525.43261	715.06578	910.08722	-463.79718	729.44100	912.40926	-525.41261	778.88003	816.04644	-537.94633	796.40544	692.46578	-521.21525	761.44465	682.04371	-527.12788	717.93658	814.03533	-170.78765	738.37734	824.17307	-369.78924	722.15173	814.21402	-171.81411	730.35077	810.48744	-343.54130	
75	0.74000000	722.40295	434.43520	-88.03381	677.41396	380.63865	-63.16927	407.45212	244.68828	-116.59495	354.95184	286.63262	-168.86718	396.96791	130.25947	-85.04945	444.16394	97.87696	-129.65665	840.53483	461.97150	-423.80456	877.35094	400.00402	-426.77696	867.11777	87.85039	-410.85650	798.08783	56.78835	-364.90937	963.10813	41.14639	-428.22111	1009.89955	72.51209	-374.08288	580.13721	322.14544	-66.66498	639.91645	440.90433	-86.96520	537.46984	387.63825	-94.23784	787.25863	400.00224	-445.02618	801.94723	278.34844	-449.07668	792.25630	744.94611	-120.10607	805.78394	633.59541	-95.90136	748.89852	612.12630	-65.13411	685.80007	740.93061	-79.94506	693.37475	625.66807	-77.81144	827.83844	750.77970	-446.40665	863.89240	616.68049	-440.65485	717.82653	722.66707	-454.84598	763.48586	584.97768	-444.95047	786.23595	892.38167	-136.64400	612.42820	908.44670	-224.69849	813.98606	903.38086	-395.10313	617.57365	906.40225	-331.12289	713.51089	1366.42385	-368.63314	777.85538	1350.23837	-209.21037	761.49330	1252.79303	-507.78804	819.07742	1275.14864	-331.85483	815.66606	1262.05844	-372.75275	786.04198	1137.78706	-76.96136	718.31141	1032.42927	-84.69060	761.95205	1062.63559	-33.26954	823.79434	953.94724	-31.12078	856.36107	839.34364	-25.49036	826.63881	833.43587	7.08021	792.12836	1116.63371	-526.55419	730.48027	911.37782	-466.20078	746.10011	913.90660	-527.57842	795.95057	817.94187	-539.72517	813.24985	694.30314	-523.22320	778.50740	683.92307	-529.92779	728.40206	816.38141	-173.14436	748.95676	826.81195	-372.12096	732.64520	816.51876	-174.27722	740.93391	813.22175	-345.76649	
76	0.75000000	745.95340	437.21153	-89.50058	701.30748	383.70418	-64.69575	430.12673	250.56046	-118.20259	376.69018	291.86966	-170.43263	421.00444	136.94273	-85.42208	467.73263	104.40935	-130.31268	844.36178	462.30777	-425.11277	880.39049	400.01152	-428.06118	867.28650	87.77652	-411.15928	798.12584	57.00314	-364.99837	963.16412	40.91841	-428.35485	1010.23733	71.95821	-374.19971	603.35895	326.34827	-68.20308	664.57217	444.37829	-88.67218	561.44730	392.29916	-95.78169	790.14983	400.86825	-445.89742	803.50977	279.13692	-449.65772	805.27749	748.66035	-122.55247	822.01650	637.84944	-97.84409	765.75169	614.92412	-66.97545	699.01646	742.02289	-82.51951	709.98736	626.87474	-80.15656	837.33657	751.83525	-447.87578	871.07181	616.85795	-441.68353	727.03607	725.27956	-457.01008	770.21543	586.86869	-446.71561	796.68992	894.98366	-138.82584	623.01270	911.05202	-227.38052	824.15260	905.40654	-396.74438	628.23315	909.01237	-333.76795	725.69890	1368.52046	-371.23557	788.50590	1353.09411	-211.16617	774.56021	1254.52664	-509.33389	830.89720	1277.41968	-333.04570	827.77114	1264.06873	-373.91131	794.74033	1140.97652	-78.06417	726.08570	1036.09574	-86.25934	769.68154	1065.92896	-34.70400	830.59196	956.69695	-33.04930	862.24813	841.74393	-28.13257	832.97502	836.16473	4.88256	806.20392	1118.75120	-527.62071	745.55124	912.91262	-468.64388	762.49410	915.64425	-529.70033	812.93284	820.19043	-541.39157	830.31977	696.56573	-525.07654	795.73992	686.16118	-532.57709	738.56480	818.99016	-175.24858	759.43663	829.02084	-374.20447	742.96608	819.00180	-176.43912	751.35788	815.72106	-347.53272	
